<svg width="23" height="24" viewBox="0 0 23 24" fill="none" xmlns="http://www.w3.org/2000/svg">
<path fill-rule="evenodd" clip-rule="evenodd" d="M10.4579 20.1418C10.6532 20.6653 10.8484 21.1569 11.0437 21.6698C10.2193 21.6698 9.40574 21.6698 8.59218 21.6698C6.44439 21.6698 4.2966 21.6698 2.14881 21.6698C1.16169 21.6698 0.5 21.018 0.5 20.0456C0.5 15.1517 0.5 10.2472 0.5 5.35334C0.5 4.88319 0.662715 4.48782 0.998986 4.15658C2.23559 2.93846 3.48304 1.72034 4.71964 0.491534C5.05591 0.16029 5.45728 0 5.93456 0C9.3515 0 12.7684 0 16.1854 0C17.0966 0 17.7908 0.662488 17.7908 1.54937C17.7908 4.97934 17.7908 8.40933 17.7908 11.8393C17.7908 11.8927 17.7908 11.9462 17.7799 12.0103C17.2701 12.0103 16.7603 12.0103 16.2396 12.0103C16.2396 11.7538 16.2396 11.4867 16.2396 11.2196C16.2396 8.17424 16.2396 5.12895 16.2396 2.09433C16.2396 1.64554 16.1203 1.528 15.6755 1.528C12.5298 1.528 9.38404 1.528 6.23828 1.528C6.16235 1.528 6.09727 1.53868 6.01049 1.53868C5.99964 1.61348 5.99965 1.68828 5.99965 1.76307C5.99965 2.41487 5.99965 3.06668 5.99965 3.72917C5.99965 4.75495 5.33796 5.41745 4.30745 5.41745C3.64576 5.41745 2.98406 5.41745 2.31152 5.41745C2.23559 5.41745 2.17051 5.42813 2.08373 5.42813C2.08373 5.51361 2.07288 5.57772 2.07288 5.65252C2.07288 10.322 2.07288 14.9808 2.07288 19.6502C2.07288 20.0349 2.20304 20.1631 2.6044 20.1631C5.08846 20.1631 7.57253 20.1631 10.0566 20.1631C10.1759 20.1418 10.3169 20.1418 10.4579 20.1418Z" fill="white"/>
<path fill-rule="evenodd" clip-rule="evenodd" d="M17.0112 13.1758C20.0268 13.1758 22.5 15.612 22.5 18.5825C22.5 21.553 20.0376 23.9893 17.022 24C14.0065 24.0107 11.5224 21.5744 11.5116 18.6146C11.5007 15.612 13.9631 13.1758 17.0112 13.1758ZM16.4038 19.245C16.317 19.1382 16.2519 19.0313 16.1651 18.9458C15.7637 18.5505 15.3515 18.1658 14.9502 17.7811C14.7441 17.5888 14.5488 17.5888 14.3753 17.7918C14.1366 18.0696 13.898 18.3474 13.6702 18.6359C13.5075 18.8497 13.5183 19.0954 13.7027 19.2771C14.5271 20.0785 15.3516 20.8799 16.176 21.6706C16.3604 21.8522 16.5448 21.8415 16.7292 21.6492C16.8376 21.5317 16.9461 21.4034 17.0546 21.2859C18.1176 20.0678 19.1915 18.8603 20.2546 17.6422C20.5149 17.3537 20.5041 17.1186 20.2329 16.8408C20.0159 16.6164 19.7881 16.392 19.5604 16.1676C19.3326 15.9433 19.1373 15.9646 18.9421 16.1997C18.7251 16.4562 18.5082 16.7233 18.2912 16.9904C17.6729 17.717 17.0654 18.4543 16.4038 19.245Z" fill="white"/>
<path fill-rule="evenodd" clip-rule="evenodd" d="M9.11338 9.27505C7.41034 9.27505 5.70729 9.27505 4.00425 9.27505C3.88493 9.27505 3.68967 9.22163 3.67882 9.15751C3.64628 8.97587 3.66798 8.78352 3.71137 8.59119C3.72222 8.54845 3.89578 8.52708 3.9934 8.52708C5.75069 8.52708 7.51881 8.52708 9.27609 8.52708C10.9574 8.52708 12.6388 8.52708 14.3093 8.53776C14.4178 8.53776 14.6022 8.61257 14.6022 8.66599C14.6239 8.84764 14.6022 9.03997 14.5588 9.22162C14.548 9.26437 14.3744 9.28573 14.2659 9.28573C12.552 9.28573 10.8273 9.27505 9.11338 9.27505Z" fill="white"/>
<path fill-rule="evenodd" clip-rule="evenodd" d="M9.13738 10.8242C7.42348 10.8242 5.70958 10.8242 4.00654 10.8242C3.67027 10.8242 3.64858 10.8029 3.64858 10.4609C3.64858 10.0763 3.65942 10.0656 3.99569 10.0656C7.43433 10.0656 10.873 10.0656 14.3116 10.0656C14.6153 10.0656 14.637 10.0869 14.637 10.4396C14.637 10.8029 14.6153 10.8242 14.3007 10.8242C12.576 10.8242 10.8513 10.8242 9.13738 10.8242Z" fill="white"/>
<path fill-rule="evenodd" clip-rule="evenodd" d="M9.11338 12.3742C7.39949 12.3742 5.6856 12.3742 3.98256 12.3742C3.87408 12.3742 3.68967 12.3101 3.67882 12.2566C3.64628 12.075 3.66798 11.872 3.71137 11.6903C3.72222 11.6476 3.89578 11.6262 3.9934 11.6262C5.31679 11.6262 6.65102 11.6262 7.9744 11.6262C10.068 11.6262 12.1724 11.6262 14.2659 11.6369C14.3852 11.6369 14.5913 11.6903 14.6022 11.7437C14.6347 11.9254 14.6239 12.1284 14.5805 12.3101C14.5696 12.3528 14.3961 12.3849 14.2985 12.3849C12.5629 12.3849 10.8381 12.3742 9.11338 12.3742Z" fill="white"/>
<path fill-rule="evenodd" clip-rule="evenodd" d="M13.1379 13.1756C12.845 13.432 12.5846 13.6564 12.3135 13.8808C12.2592 13.9235 12.1833 13.9342 12.1074 13.9342C9.38467 13.9342 6.66196 13.9342 3.92841 13.9342C3.72231 13.9342 3.62467 13.8594 3.63552 13.6457C3.63552 13.5816 3.63552 13.5175 3.63552 13.4534C3.61383 13.2397 3.72231 13.1649 3.92841 13.1756C4.70942 13.1862 5.50128 13.1756 6.28229 13.1756C8.54941 13.1756 10.8165 13.1756 13.1379 13.1756Z" fill="white"/>
<path fill-rule="evenodd" clip-rule="evenodd" d="M11.5653 14.7249C11.4134 14.9707 11.2833 15.1844 11.1423 15.3874C11.1097 15.4409 11.0121 15.4729 10.947 15.4729C8.60395 15.4729 6.26091 15.4729 3.91787 15.4729C3.71177 15.4729 3.63583 15.3874 3.64668 15.1951C3.64668 15.131 3.64668 15.0669 3.64668 15.0028C3.62499 14.7891 3.72261 14.7143 3.93956 14.7143C4.88328 14.7249 5.827 14.7143 6.77073 14.7143C8.34361 14.7249 9.92734 14.7249 11.5653 14.7249Z" fill="white"/>
<path fill-rule="evenodd" clip-rule="evenodd" d="M10.7211 16.274C10.6343 16.5411 10.5692 16.7762 10.4933 17.0326C9.82076 17.0326 9.14823 17.0326 8.47569 17.0326C6.97874 17.0326 5.48179 17.0326 3.98485 17.0326C3.67027 17.0326 3.64858 17.0113 3.64858 16.68C3.64858 16.2954 3.65943 16.274 3.98485 16.274C6.16518 16.274 8.33466 16.274 10.515 16.274C10.5692 16.274 10.6235 16.274 10.7211 16.274Z" fill="white"/>
<path fill-rule="evenodd" clip-rule="evenodd" d="M11.1214 3.87929C11.9242 3.87929 12.7269 3.88998 13.5296 3.87929C13.7682 3.87929 13.8659 3.96478 13.8442 4.18917C13.8333 4.25328 13.8442 4.31738 13.8442 4.38149C13.855 4.55246 13.7682 4.63794 13.5947 4.63794C11.935 4.63794 10.2754 4.63794 8.60485 4.63794C8.43129 4.63794 8.3445 4.56315 8.35535 4.39219C8.35535 4.33876 8.35535 4.27464 8.35535 4.22121C8.35535 3.91134 8.3879 3.88997 8.69163 3.88997C9.50519 3.87929 10.3187 3.87929 11.1214 3.87929Z" fill="white"/>
</svg>
