<svg width="233" height="65" viewBox="0 0 233 65" fill="none" xmlns="http://www.w3.org/2000/svg">
<path d="M49.8176 42.1486C45.0314 47.9001 38.8964 50.9045 32.0217 50.9045C19.5341 50.9045 10.4838 42.0628 10.4838 29.8302C10.4838 17.5977 19.4035 8.71301 31.2385 8.71301C39.7231 8.71301 45.2925 13.5631 48.2512 17.1685L55.1695 11.417C52.3105 7.85819 48.6731 4.9828 44.5291 3.00577C40.3851 1.02875 35.8417 0.00122304 31.2385 0C14.0082 0 0.998423 12.8334 0.998423 29.8302C0.913321 37.3755 3.7809 44.6625 9.00443 50.1749C9.48304 54.4241 9.74411 61.7207 6.04568 64.1672C6.0892 64.1672 17.1845 64.6393 23.7981 58.6733C26.4935 59.2984 29.2528 59.6152 32.0217 59.6176C42.1162 59.6176 52.0367 54.7675 57.1274 47.3421L49.8176 42.1486Z" fill="white"/>
<path d="M31.8494 13.4336C22.016 13.4336 14.6191 20.859 14.6191 30.087C14.6191 39.3151 22.016 46.6546 31.8494 46.6546C41.6829 46.6546 49.0798 39.3151 49.0798 30.087C49.0798 20.859 41.6829 13.4336 31.8494 13.4336ZM31.8494 38.7571C26.7587 38.7571 23.3213 34.8942 23.3213 30.087C23.3213 25.2798 26.7587 21.3311 31.8494 21.3311C36.9402 21.3311 40.3776 25.2798 40.3776 30.087C40.3776 34.8942 36.9402 38.7571 31.8494 38.7571Z" fill="white"/>
<path d="M185.921 38.7571C180.656 38.7571 176.958 35.0659 176.958 30.087C176.958 25.1082 180.7 21.3311 185.704 21.3311C187.166 21.3527 188.603 21.709 189.902 22.3719C191.2 23.0348 192.325 23.9862 193.188 25.1511L199.323 19.7859C196.32 15.9659 191.317 13.4336 185.704 13.4336C175.827 13.4336 168.299 20.7731 168.299 30.087C168.299 39.4009 175.653 46.6546 185.66 46.6546C191.708 46.6546 196.538 44.5085 200.323 39.4868L193.666 34.5508C192.818 35.8196 191.67 36.8657 190.321 37.5985C188.971 38.3314 187.461 38.7291 185.921 38.7571Z" fill="white"/>
<path d="M111.3 5.19336L93.5913 21.3317H102.642V32.5342C102.642 37.0409 103.338 39.8737 105.035 42.0627C107.21 44.9813 111.039 46.6552 116.26 46.6552C117.827 46.6552 120.263 46.4406 121.438 46.0544L119.263 38.9294C118.44 39.0309 117.612 39.0882 116.783 39.1011C114.651 39.1011 113.215 38.5002 112.388 37.513C111.561 36.5258 111.3 35.4957 111.3 33.5214V21.3317H121.96V14.0781H111.3V5.19336Z" fill="white"/>
<path d="M233 21.3317V14.0781H222.34V5.19336L204.631 21.3317H213.638V32.5342C213.638 37.0409 214.377 39.8737 216.074 42.0627C218.25 44.9813 222.079 46.6552 227.256 46.6552C228.866 46.6552 231.259 46.4406 232.478 46.0544L230.302 38.9294C229.479 39.0309 228.651 39.0882 227.822 39.1011C225.69 39.1011 224.254 38.5002 223.384 37.513C222.514 36.5258 222.34 35.4957 222.34 33.5214V21.3317H233Z" fill="white"/>
<path d="M152.592 18.7987C152.331 16.4381 149.068 13.4336 143.107 13.4336C134.317 13.4336 127.225 20.6443 127.225 30.087C127.214 34.1864 128.679 38.1565 131.359 41.2894C132.9 42.9812 134.785 44.3334 136.892 45.2578C138.999 46.1823 141.28 46.6582 143.585 46.6546C149.285 46.6546 152.418 43.693 152.592 41.2894V46.0108H160.946V14.0774H152.592V18.7987ZM143.933 38.7571H143.629C141.569 38.4264 139.725 37.307 138.497 35.6423C137.269 33.9776 136.757 31.9021 137.073 29.8671C137.388 27.832 138.505 26.002 140.18 24.7749C141.856 23.5477 143.955 23.0226 146.021 23.3137C148.087 23.6049 149.953 24.6887 151.213 26.3296C152.473 27.9705 153.026 30.0358 152.751 32.0764C152.476 34.1171 151.395 35.9682 149.744 37.2272C148.093 38.4863 146.005 39.0515 143.933 38.8V38.7571Z" fill="white"/>
<path d="M75.3166 13.4336C69.7472 13.4336 66.3968 16.0947 66.1358 18.6271V14.0774H57.8252V46.0108H66.4839V26.3529C66.4839 26.3529 67.2235 23.563 70.7479 22.0608L71.3571 21.8462C72.3184 21.4981 73.3353 21.3236 74.3593 21.3311C76.3608 21.3311 78.1013 21.9749 79.2326 23.0909C80.3638 24.2068 81.1905 25.9237 81.1905 29.0998V46.0108H89.8492V29.7437C89.8492 24.2927 88.6309 21.0736 86.4989 18.5412C85.1242 16.9382 83.4114 15.6506 81.4799 14.7684C79.5485 13.8862 77.445 13.4307 75.3166 13.4336Z" fill="white"/>
</svg>
