<svg width="20" height="19" viewBox="0 0 20 19" fill="none" xmlns="http://www.w3.org/2000/svg">
<ellipse cx="10" cy="9.5" rx="10" ry="9.5" fill="#F7114D"/>
<path d="M9.66063 12.54C9.57063 12.54 9.49563 12.51 9.43563 12.45C9.37563 12.39 9.34563 12.315 9.34563 12.225V11.625C9.36563 11.095 9.50063 10.64 9.75063 10.26C10.0006 9.88 10.3656 9.445 10.8456 8.955C11.2356 8.555 11.5206 8.225 11.7006 7.965C11.8806 7.705 11.9706 7.42 11.9706 7.11C11.9706 6.65 11.7756 6.285 11.3856 6.015C11.0056 5.745 10.5606 5.61 10.0506 5.61C8.86063 5.61 8.16063 6.21 7.95063 7.41C7.90063 7.63 7.77063 7.74 7.56063 7.74H6.84063C6.74063 7.74 6.66063 7.71 6.60063 7.65C6.54063 7.59 6.51062 7.51 6.51062 7.41C6.53063 6.86 6.68563 6.355 6.97563 5.895C7.27563 5.425 7.69563 5.05 8.23563 4.77C8.77563 4.49 9.39563 4.35 10.0956 4.35C10.8356 4.35 11.4556 4.48 11.9556 4.74C12.4656 4.99 12.8406 5.32 13.0806 5.73C13.3206 6.13 13.4406 6.56 13.4406 7.02C13.4406 7.53 13.3256 7.97 13.0956 8.34C12.8656 8.71 12.5206 9.14 12.0606 9.63C11.6806 10.03 11.3956 10.37 11.2056 10.65C11.0156 10.92 10.9056 11.225 10.8756 11.565C10.8556 11.845 10.8456 12.055 10.8456 12.195C10.7956 12.425 10.6706 12.54 10.4706 12.54H9.66063ZM9.54063 15C9.44063 15 9.35563 14.97 9.28563 14.91C9.22563 14.84 9.19563 14.755 9.19563 14.655V13.74C9.19563 13.64 9.22563 13.56 9.28563 13.5C9.35563 13.43 9.44063 13.395 9.54063 13.395H10.5156C10.6156 13.395 10.7006 13.43 10.7706 13.5C10.8406 13.56 10.8756 13.64 10.8756 13.74V14.655C10.8756 14.755 10.8406 14.84 10.7706 14.91C10.7006 14.97 10.6156 15 10.5156 15H9.54063Z" fill="white"/>
</svg>
